<svg xmlns="http://www.w3.org/2000/svg" width="22" height="20" viewBox="0 0 22 20" fill="none">
<path fill-rule="evenodd" clip-rule="evenodd" d="M10.9999 3.35365L9.38148 6.48292C8.94621 7.32453 8.13894 7.91104 7.20402 8.06494L3.72779 8.63714L6.20379 11.1433C6.8697 11.8174 7.17805 12.7664 7.0355 13.7031L6.50549 17.186L9.65415 15.6057C10.501 15.1806 11.4988 15.1806 12.3456 15.6057L15.4943 17.186L14.9643 13.7031C14.8217 12.7664 15.1301 11.8174 15.796 11.1433L18.272 8.63714L14.7958 8.06494C13.8608 7.91104 13.0536 7.32453 12.6183 6.48292L10.9999 3.35365ZM11.8881 0.717436C11.5153 -0.00338626 10.4845 -0.00338697 10.1117 0.717435L7.605 5.56415C7.45992 5.84469 7.19083 6.04019 6.87919 6.09149L1.49509 6.97774C0.694342 7.10955 0.375782 8.08997 0.946124 8.66727L4.78103 12.549C5.003 12.7736 5.10578 13.09 5.05827 13.4022L4.23736 18.7967C4.11527 19.5989 4.94927 20.2049 5.67456 19.8408L10.5513 17.3931C10.8336 17.2515 11.1662 17.2515 11.4485 17.3931L16.3252 19.8408C17.0505 20.2049 17.8845 19.5989 17.7624 18.7967L16.9415 13.4022C16.894 13.09 16.9968 12.7736 17.2188 12.549L21.0537 8.66727C21.624 8.08997 21.3054 7.10955 20.5047 6.97774L15.1206 6.09149C14.809 6.04019 14.5399 5.84469 14.3948 5.56415L11.8881 0.717436Z" fill="#606060"/>
</svg>