<svg xmlns="http://www.w3.org/2000/svg" width="22" height="20" viewBox="0 0 22 20" fill="none">
<path d="M10.1118 0.717446C10.4846 -0.00337601 11.5154 -0.00337529 11.8882 0.717447L14.3949 5.56416C14.54 5.8447 14.8091 6.04021 15.1207 6.0915L20.5048 6.97775C21.3056 7.10956 21.6241 8.08998 21.0538 8.66728L17.2189 12.549C16.9969 12.7736 16.8941 13.09 16.9416 13.4022L17.7625 18.7967C17.8846 19.5989 17.0506 20.2049 16.3253 19.8409L11.4486 17.3931C11.1663 17.2515 10.8337 17.2515 10.5514 17.3931L5.67467 19.8409C4.94938 20.2049 4.11538 19.5989 4.23747 18.7967L5.05837 13.4022C5.10589 13.09 5.00311 12.7736 4.78114 12.549L0.94623 8.66728C0.375888 8.08998 0.694448 7.10956 1.49519 6.97775L6.87929 6.0915C7.19093 6.04021 7.46002 5.8447 7.60511 5.56417L10.1118 0.717446Z" fill="#606060"/>
</svg>